<svg xmlns="http://www.w3.org/2000/svg" xmlns:xlink="http://www.w3.org/1999/xlink" contentStyleType="text/css" data-diagram-type="STATE" height="482.3px" preserveAspectRatio="none" style="width:379px;height:482px;background:#FFFFFF;" version="1.1" viewBox="0 0 379 482" width="379.47px" zoomAndPan="magnify"><defs/><g><ellipse cx="92.3923" cy="14.56" fill="#222222" rx="9.1" ry="9.1" style="stroke:#222222;stroke-width:0.91;"/><g id="Idle"><rect fill="#F1F1F1" height="45.5" rx="11.375" ry="11.375" style="stroke:#181818;stroke-width:0.455;" width="45.5" x="69.6423" y="79.17"/><line style="stroke:#181818;stroke-width:0.455;" x1="69.6423" x2="115.1423" y1="105.2152" y2="105.2152"/><text fill="#000000" font-family="sans-serif" font-size="12.74" lengthAdjust="spacing" textLength="20.5408" x="82.1219" y="97.4678">Idle</text></g><g id="WaitingForMoney"><rect fill="#F1F1F1" height="45.5" rx="11.375" ry="11.375" style="stroke:#181818;stroke-width:0.455;" width="118.0298" x="140.6223" y="196.56"/><line style="stroke:#181818;stroke-width:0.455;" x1="140.6223" x2="258.6521" y1="222.6052" y2="222.6052"/><text fill="#000000" font-family="sans-serif" font-size="12.74" lengthAdjust="spacing" textLength="99.8298" x="149.7223" y="214.8578">WaitingForMoney</text></g><g id="MoneyReceived"><rect fill="#F1F1F1" height="45.5" rx="11.375" ry="11.375" style="stroke:#181818;stroke-width:0.455;" width="109.551" x="141.5323" y="313.95"/><line style="stroke:#181818;stroke-width:0.455;" x1="141.5323" x2="251.0833" y1="339.9952" y2="339.9952"/><text fill="#000000" font-family="sans-serif" font-size="12.74" lengthAdjust="spacing" textLength="91.351" x="150.6323" y="332.2478">MoneyReceived</text></g><g id="TicketDispensed"><rect fill="#F1F1F1" height="45.5" rx="11.375" ry="11.375" style="stroke:#181818;stroke-width:0.455;" width="112.3752" x="11.8573" y="431.34"/><line style="stroke:#181818;stroke-width:0.455;" x1="11.8573" x2="124.2325" y1="457.3852" y2="457.3852"/><text fill="#000000" font-family="sans-serif" font-size="12.74" lengthAdjust="spacing" textLength="94.1752" x="20.9573" y="449.6378">TicketDispensed</text></g><g id="TransactionCanceled"><rect fill="#F1F1F1" height="45.5" rx="11.375" ry="11.375" style="stroke:#181818;stroke-width:0.455;" width="138.5893" x="203.4123" y="431.34"/><line style="stroke:#181818;stroke-width:0.455;" x1="203.4123" x2="342.0016" y1="457.3852" y2="457.3852"/><text fill="#000000" font-family="sans-serif" font-size="12.74" lengthAdjust="spacing" textLength="120.3893" x="212.5123" y="449.6378">TransactionCanceled</text></g><!--link *start* to Idle--><g class="link" data-entity-1=".start." data-entity-2="Idle" data-source-line="1" data-uid="lnk4" id="link_.start._Idle"><path d="M92.3923,23.6691 C92.3923,36.2999 92.3923,55.4827 92.3923,73.5644" fill="none" id="*start*-to-Idle" style="stroke:#181818;stroke-width:0.91;"/><polygon fill="#181818" points="92.3923,79.0244,96.0323,70.8344,92.3923,74.4744,88.7523,70.8344,92.3923,79.0244" style="stroke:#181818;stroke-width:0.91;"/></g><!--link Idle to WaitingForMoney--><g class="link" data-entity-1="Idle" data-entity-2="WaitingForMoney" data-source-line="3" data-uid="lnk6" id="link_Idle_WaitingForMoney"><path d="M112.84,124.8429 C131.95,145.3998 156.5983,171.9303 175.681,192.469" fill="none" id="Idle-to-WaitingForMoney" style="stroke:#181818;stroke-width:0.91;"/><polygon fill="#181818" points="179.3974,196.469,176.4894,187.9914,176.3004,193.1357,171.1561,192.9466,179.3974,196.469" style="stroke:#181818;stroke-width:0.91;"/><text fill="#000000" font-family="sans-serif" font-size="11.83" lengthAdjust="spacing" textLength="72.9728" x="153.3623" y="165.6458">select_ticket()</text></g><!--link WaitingForMoney to MoneyReceived--><g class="link" data-entity-1="WaitingForMoney" data-entity-2="MoneyReceived" data-source-line="4" data-uid="lnk8" id="link_WaitingForMoney_MoneyReceived"><path d="M196.3143,242.1783 C195.1404,250.6504 193.9756,260.4329 193.4023,269.36 C192.4468,284.2203 192.7574,295.5274 193.6856,308.4858" fill="none" id="WaitingForMoney-to-MoneyReceived" style="stroke:#181818;stroke-width:0.91;"/><polygon fill="#181818" points="194.0757,313.9318,197.1213,305.5027,193.7506,309.3934,189.8599,306.0228,194.0757,313.9318" style="stroke:#181818;stroke-width:0.91;"/><text fill="#000000" font-family="sans-serif" font-size="11.83" lengthAdjust="spacing" textLength="118.352" x="194.3123" y="283.0358">insert_money(amount)</text></g><!--link MoneyReceived to TicketDispensed--><g class="link" data-entity-1="MoneyReceived" data-entity-2="TicketDispensed" data-source-line="5" data-uid="lnk10" id="link_MoneyReceived_TicketDispensed"><path d="M169.9516,359.632 C160.1054,368.0222 148.8578,377.741 138.8023,386.75 C122.5861,401.2736 108.6506,414.2812 94.8823,427.3215" fill="none" id="MoneyReceived-to-TicketDispensed" style="stroke:#181818;stroke-width:0.91;"/><polygon fill="#181818" points="90.9181,431.0761,99.3674,428.087,94.2216,427.9473,94.3613,422.8014,90.9181,431.0761" style="stroke:#181818;stroke-width:0.91;"/><text fill="#000000" font-family="sans-serif" font-size="11.83" lengthAdjust="spacing" textLength="89.4239" x="139.7123" y="400.4258">dispense_ticket()</text></g><!--link WaitingForMoney to TransactionCanceled--><g class="link" data-entity-1="WaitingForMoney" data-entity-2="TransactionCanceled" data-source-line="6" data-uid="lnk12" id="link_WaitingForMoney_TransactionCanceled"><path d="M259.168,230.685 C281.1991,237.7557 304.0037,249.5857 317.1623,269.36 C351.0962,320.3473 314.8966,390.0256 291.1274,426.5894" fill="none" id="WaitingForMoney-to-TransactionCanceled" style="stroke:#181818;stroke-width:0.91;"/><polygon fill="#181818" points="288.1515,431.1671,295.6671,426.2844,290.6314,427.3523,289.5635,422.3166,288.1515,431.1671" style="stroke:#181818;stroke-width:0.91;"/><text fill="#000000" font-family="sans-serif" font-size="11.83" lengthAdjust="spacing" textLength="42.0751" x="330.8123" y="341.7308">cancel()</text></g><!--link MoneyReceived to TransactionCanceled--><g class="link" data-entity-1="MoneyReceived" data-entity-2="TransactionCanceled" data-source-line="7" data-uid="lnk13" id="link_MoneyReceived_TransactionCanceled"><path d="M216.0977,359.6047 C223.1229,367.8311 230.8124,377.4498 237.0823,386.75 C246.6464,400.9551 253.2948,413.1253 259.8741,426.4022" fill="none" id="MoneyReceived-to-TransactionCanceled" style="stroke:#181818;stroke-width:0.91;"/><polygon fill="#181818" points="262.2984,431.2945,261.9234,422.3399,260.2781,427.2176,255.4004,425.5723,262.2984,431.2945" style="stroke:#181818;stroke-width:0.91;"/><text fill="#000000" font-family="sans-serif" font-size="11.83" lengthAdjust="spacing" textLength="42.0751" x="247.0923" y="400.4258">cancel()</text></g><!--link TicketDispensed to Idle--><g class="link" data-entity-1="TicketDispensed" data-entity-2="Idle" data-source-line="8" data-uid="lnk14" id="link_TicketDispensed_Idle"><path d="M54.9276,431.3218 C36.3272,397.0876 5.46,328.6192 17.7723,269.36 C29.211,214.305 57.8864,160.2399 76.0955,129.3727" fill="none" id="TicketDispensed-to-Idle" style="stroke:#181818;stroke-width:0.91;"/><polygon fill="#181818" points="78.8697,124.67,71.5733,129.8746,76.5579,128.5889,77.8435,133.5735,78.8697,124.67" style="stroke:#181818;stroke-width:0.91;"/><text fill="#000000" font-family="sans-serif" font-size="11.83" lengthAdjust="spacing" textLength="34.1788" x="18.6823" y="283.0358">reset()</text></g><!--link TransactionCanceled to Idle--><g class="link" data-entity-1="TransactionCanceled" data-entity-2="Idle" data-source-line="9" data-uid="lnk15" id="link_TransactionCanceled_Idle"><path d="M203.3486,449.2761 C170.9344,443.6432 134.8074,431.1307 113.3223,404.04 C46.8832,320.2472 71.7254,184.0333 85.0933,129.9975" fill="none" id="TransactionCanceled-to-Idle" style="stroke:#181818;stroke-width:0.91;"/><polygon fill="#181818" points="86.4045,124.6973,80.9042,131.7735,85.3118,129.1141,87.9711,133.5218,86.4045,124.6973" style="stroke:#181818;stroke-width:0.91;"/><text fill="#000000" font-family="sans-serif" font-size="11.83" lengthAdjust="spacing" textLength="34.1788" x="72.3723" y="283.0358">reset()</text></g><!--SRC=[VP2n2W8n38RtFaN7E-5UmC554HnSvC11v2XfaE1TAcqKV7kReeD7kINy2V-N_EIokjgkszY37z4OhQKzEnBYspx4Os1ysxLDE2B880HtbAOrSuTIHPqGa5xeCqESCCemwRXnKtYojERVf5XVTkueFJ032lglNZxNHyV9WL3WhMF80PM58flgeMLWdkFtb-o9c4gCseQAxGC0]--></g></svg>