<svg xmlns="http://www.w3.org/2000/svg" xmlns:xlink="http://www.w3.org/1999/xlink" contentStyleType="text/css" data-diagram-type="DESCRIPTION" height="482.09px" preserveAspectRatio="none" style="width:1008px;height:482px;background:#FFFFFF;" version="1.1" viewBox="0 0 1008 482" width="1008.91px" zoomAndPan="magnify"><defs/><g><!--entity Reader--><g class="entity" data-entity="Reader" data-source-line="3" data-uid="ent0002" id="entity_Reader"><ellipse cx="20.5605" cy="194.4264" fill="#F1F1F1" rx="5.68" ry="5.68" style="stroke:#181818;stroke-width:0.355;"/><path d="M20.5605,200.1064 L20.5605,219.2764 M11.3305,205.7864 L29.7905,205.7864 M20.5605,219.2764 L11.3305,229.9264 M20.5605,219.2764 L29.7905,229.9264" fill="none" style="stroke:#181818;stroke-width:0.355;"/><text fill="#000000" font-family="sans-serif" font-size="9.94" lengthAdjust="spacing" textLength="32.6011" x="4.26" y="241.7177">Reader</text></g><!--entity Librarian--><g class="entity" data-entity="Librarian" data-source-line="4" data-uid="ent0003" id="entity_Librarian"><ellipse cx="147.1388" cy="73.7264" fill="#F1F1F1" rx="5.68" ry="5.68" style="stroke:#181818;stroke-width:0.355;"/><path d="M147.1388,79.4064 L147.1388,98.5764 M137.9088,85.0864 L156.3688,85.0864 M147.1388,98.5764 L137.9088,109.2264 M147.1388,98.5764 L156.3688,109.2264" fill="none" style="stroke:#181818;stroke-width:0.355;"/><text fill="#000000" font-family="sans-serif" font-size="9.94" lengthAdjust="spacing" textLength="38.6777" x="127.8" y="121.0177">Librarian</text></g><!--entity Administrator--><g class="entity" data-entity="Administrator" data-source-line="5" data-uid="ent0004" id="entity_Administrator"><ellipse cx="530.5364" cy="373.3464" fill="#F1F1F1" rx="5.68" ry="5.68" style="stroke:#181818;stroke-width:0.355;"/><path d="M530.5364,379.0264 L530.5364,398.1964 M521.3064,384.7064 L539.7664,384.7064 M530.5364,398.1964 L521.3064,408.8464 M530.5364,398.1964 L539.7664,408.8464" fill="none" style="stroke:#181818;stroke-width:0.355;"/><text fill="#000000" font-family="sans-serif" font-size="9.94" lengthAdjust="spacing" textLength="58.5528" x="501.26" y="420.6377">Administrator</text></g><!--entity UC1--><g class="entity" data-entity="UC1" data-source-line="7" data-uid="ent0005" id="entity_UC1"><ellipse cx="146.8661" cy="30.2536" fill="#F1F1F1" rx="52.7911" ry="12.2622" style="stroke:#181818;stroke-width:0.355;"/><text fill="#000000" font-family="sans-serif" font-size="9.94" lengthAdjust="spacing" textLength="76.7875" x="108.4723" y="34.3791">User Registration</text></g><!--entity UC2--><g class="entity" data-entity="UC2" data-source-line="8" data-uid="ent0006" id="entity_UC2"><ellipse cx="940.5345" cy="287.4643" fill="#F1F1F1" rx="64.3945" ry="14.5829" style="stroke:#181818;stroke-width:0.355;"/><text fill="#000000" font-family="sans-serif" font-size="9.94" lengthAdjust="spacing" textLength="105.5348" x="887.7671" y="291.5898">View and Search Books</text></g><!--entity UC3--><g class="entity" data-entity="UC3" data-source-line="9" data-uid="ent0007" id="entity_UC3"><ellipse cx="530.5466" cy="216.4007" fill="#F1F1F1" rx="53.4266" ry="12.3893" style="stroke:#181818;stroke-width:0.355;"/><text fill="#000000" font-family="sans-serif" font-size="9.94" lengthAdjust="spacing" textLength="78.4571" x="491.3181" y="220.5262">Book Reservation</text></g><!--entity UC4--><g class="entity" data-entity="UC4" data-source-line="10" data-uid="ent0008" id="entity_UC4"><ellipse cx="146.8299" cy="267.4574" fill="#F1F1F1" rx="56.6599" ry="13.036" style="stroke:#181818;stroke-width:0.355;"/><text fill="#000000" font-family="sans-serif" font-size="9.94" lengthAdjust="spacing" textLength="86.742" x="103.4589" y="271.5829">Cancel Reservation</text></g><!--entity UC5--><g class="entity" data-entity="UC5" data-source-line="11" data-uid="ent0009" id="entity_UC5"><ellipse cx="146.9711" cy="164.0386" fill="#F1F1F1" rx="66.7411" ry="15.0522" style="stroke:#181818;stroke-width:0.355;"/><text fill="#000000" font-family="sans-serif" font-size="9.94" lengthAdjust="spacing" textLength="111.0339" x="91.4542" y="168.1641">View Reservation History</text></g><!--entity UC6--><g class="entity" data-entity="UC6" data-source-line="12" data-uid="ent0010" id="entity_UC6"><ellipse cx="940.5194" cy="34.5995" fill="#F1F1F1" rx="47.3394" ry="20.1581" style="stroke:#181818;stroke-width:0.355;"/><text fill="#000000" font-family="sans-serif" font-size="9.94" lengthAdjust="spacing" textLength="66.3087" x="907.365" y="33.0791">Manage Books</text><text fill="#000000" font-family="sans-serif" font-size="9.94" lengthAdjust="spacing" textLength="55.8009" x="912.6189" y="46.3001">(Add/Delete)</text></g><!--entity UC7--><g class="entity" data-entity="UC7" data-source-line="13" data-uid="ent0011" id="entity_UC7"><ellipse cx="530.2299" cy="65.1074" fill="#F1F1F1" rx="56.6599" ry="13.036" style="stroke:#181818;stroke-width:0.355;"/><text fill="#000000" font-family="sans-serif" font-size="9.94" lengthAdjust="spacing" textLength="86.742" x="486.8589" y="69.2329">Issue/Return Books</text></g><!--entity UC8--><g class="entity" data-entity="UC8" data-source-line="14" data-uid="ent0012" id="entity_UC8"><ellipse cx="940.3596" cy="465.7813" fill="#F1F1F1" rx="54.2796" ry="12.5599" style="stroke:#181818;stroke-width:0.355;"/><text fill="#000000" font-family="sans-serif" font-size="9.94" lengthAdjust="spacing" textLength="80.6751" x="900.0221" y="469.9068">Manage Branches</text></g><!--entity UC9--><g class="entity" data-entity="UC9" data-source-line="15" data-uid="ent0013" id="entity_UC9"><ellipse cx="940.3074" cy="365.3769" fill="#F1F1F1" rx="63.4574" ry="14.3955" style="stroke:#181818;stroke-width:0.355;"/><text fill="#000000" font-family="sans-serif" font-size="9.94" lengthAdjust="spacing" textLength="103.3168" x="888.649" y="369.5024">Manage User Accounts</text></g><!--entity UC10--><g class="entity" data-entity="UC10" data-source-line="16" data-uid="ent0014" id="entity_UC10"><ellipse cx="940.2671" cy="416.775" fill="#F1F1F1" rx="47.4421" ry="11.4786" style="stroke:#181818;stroke-width:0.355;"/><text fill="#000000" font-family="sans-serif" font-size="9.94" lengthAdjust="spacing" textLength="64.081" x="908.2266" y="420.9005">View Analytics</text></g><!--link Reader to UC1--><g class="link" data-entity-1="Reader" data-entity-2="UC1" data-source-line="19" data-uid="lnk15" id="link_Reader_UC1"><path d="M24.4311,188.1429 C29.7987,152.6145 43.9561,91.8811 80.23,55.2664 C87.6424,47.783 93.5351,44.013 103.397,40.3281" fill="none" id="Reader-to-UC1" style="stroke:#181818;stroke-width:0.71;"/><polygon fill="#181818" points="107.3875,38.837,100.4077,38.4132,104.0621,40.0796,102.3957,43.7339,107.3875,38.837" style="stroke:#181818;stroke-width:0.71;"/></g><!--link Reader to UC2--><g class="link" data-entity-1="Reader" data-entity-2="UC2" data-source-line="20" data-uid="lnk16" id="link_Reader_UC2"><path d="M34.506,244.5311 C44.3963,262.0113 59.7465,283.0273 80.23,293.1164 C133.4445,319.3367 154.3895,293.3507 213.71,293.1164 C458.5464,292.1579 745.5499,289.4249 871.8234,288.1469" fill="none" id="Reader-to-UC2" style="stroke:#181818;stroke-width:0.71;"/><polygon fill="#181818" points="876.0832,288.1038,869.6648,285.3286,872.5334,288.1397,869.7223,291.0083,876.0832,288.1038" style="stroke:#181818;stroke-width:0.71;"/></g><!--link Reader to UC3--><g class="link" data-entity-1="Reader" data-entity-2="UC3" data-source-line="21" data-uid="lnk17" id="link_Reader_UC3"><path d="M37.0691,216.4364 C103.731,216.4364 359.8422,216.4364 472.718,216.4364" fill="none" id="Reader-to-UC3" style="stroke:#181818;stroke-width:0.71;"/><polygon fill="#181818" points="476.978,216.4364,470.588,213.5964,473.428,216.4364,470.588,219.2764,476.978,216.4364" style="stroke:#181818;stroke-width:0.71;"/></g><!--link Reader to UC4--><g class="link" data-entity-1="Reader" data-entity-2="UC4" data-source-line="22" data-uid="lnk18" id="link_Reader_UC4"><path d="M36.9342,224.7221 C43.4378,228.0449 51.12,231.815 58.22,234.8964 C76.6161,242.8768 93.6465,249.3026 110.5445,255.3092" fill="none" id="Reader-to-UC4" style="stroke:#181818;stroke-width:0.71;"/><polygon fill="#181818" points="114.5585,256.736,109.4888,251.9198,111.2135,255.547,107.5864,257.2718,114.5585,256.736" style="stroke:#181818;stroke-width:0.71;"/></g><!--link Reader to UC5--><g class="link" data-entity-1="Reader" data-entity-2="UC5" data-source-line="23" data-uid="lnk19" id="link_Reader_UC5"><path d="M36.9555,208.2004 C43.4662,204.8847 51.1413,201.1075 58.22,197.9764 C75.4588,190.351 90.989,184.1958 107.2551,178.0827" fill="none" id="Reader-to-UC5" style="stroke:#181818;stroke-width:0.71;"/><polygon fill="#181818" points="111.2428,176.5841,104.2622,176.1736,107.9197,177.833,106.2604,181.4905,111.2428,176.5841" style="stroke:#181818;stroke-width:0.71;"/></g><!--link Librarian to UC6--><g class="link" data-entity-1="Librarian" data-entity-2="UC6" data-source-line="26" data-uid="lnk20" id="link_Librarian_UC6"><path d="M166.2678,86.7194 C183.6273,78.7248 210.4582,67.4571 235.01,61.6564 C477.9223,4.26 776.6122,20.825 889.9069,30.0905" fill="none" id="Librarian-to-UC6" style="stroke:#181818;stroke-width:0.71;"/><polygon fill="#181818" points="894.1527,30.4377,888.0155,27.0863,890.6145,30.1483,887.5525,32.7474,894.1527,30.4377" style="stroke:#181818;stroke-width:0.71;"/></g><!--link Librarian to UC7--><g class="link" data-entity-1="Librarian" data-entity-2="UC7" data-source-line="27" data-uid="lnk21" id="link_Librarian_UC7"><path d="M166.3601,94.2454 C222.3081,89.7724 385.7139,76.7141 472.3268,69.7916" fill="none" id="Librarian-to-UC7" style="stroke:#181818;stroke-width:0.71;"/><polygon fill="#181818" points="476.5733,69.4522,469.9773,67.1303,473.0346,69.735,470.4299,72.7923,476.5733,69.4522" style="stroke:#181818;stroke-width:0.71;"/></g><!--link Librarian to UC2--><g class="link" data-entity-1="Librarian" data-entity-2="UC2" data-source-line="28" data-uid="lnk22" id="link_Librarian_UC2"><path d="M166.3246,97.2842 C265.1353,105.7261 727.7855,148.0989 854.84,211.4664 C885.0931,226.5539 910.0098,252.1594 925.0618,269.6325" fill="none" id="Librarian-to-UC2" style="stroke:#181818;stroke-width:0.71;"/><polygon fill="#181818" points="927.8422,272.8601,925.8234,266.1652,925.5252,270.1705,921.52,269.8723,927.8422,272.8601" style="stroke:#181818;stroke-width:0.71;"/></g><!--link Librarian to UC3--><g class="link" data-entity-1="Librarian" data-entity-2="UC3" data-source-line="29" data-uid="lnk23" id="link_Librarian_UC3"><path d="M166.3459,104.4623 C183.748,112.2581 210.6144,123.3909 235.01,129.8164 C329.3477,154.6522 361.745,124.6973 452.27,161.0564 C477.5673,171.2165 499.2326,188.443 513.6953,201.4218" fill="none" id="Librarian-to-UC3" style="stroke:#181818;stroke-width:0.71;"/><polygon fill="#181818" points="516.8658,204.267,514.0068,197.8855,514.2237,201.896,510.2132,202.1128,516.8658,204.267" style="stroke:#181818;stroke-width:0.71;"/></g><!--link Administrator to UC8--><g class="link" data-entity-1="Administrator" data-entity-2="UC8" data-source-line="32" data-uid="lnk24" id="link_Administrator_UC8"><path d="M559.5226,404.4231 C574.0492,408.8038 592.0761,413.859 608.47,417.3664 C707.7706,438.6238 821.6025,452.886 886.5462,460.0996" fill="none" id="Administrator-to-UC8" style="stroke:#181818;stroke-width:0.71;"/><polygon fill="#181818" points="890.7802,460.5699,884.7428,457.0418,887.2519,460.178,884.1157,462.6871,890.7802,460.5699" style="stroke:#181818;stroke-width:0.71;"/></g><!--link Administrator to UC9--><g class="link" data-entity-1="Administrator" data-entity-2="UC9" data-source-line="33" data-uid="lnk25" id="link_Administrator_UC9"><path d="M559.4871,393.2832 C625.4532,388.4694 785.9387,376.7594 875.3774,370.2274" fill="none" id="Administrator-to-UC9" style="stroke:#181818;stroke-width:0.71;"/><polygon fill="#181818" points="879.6261,369.9171,873.0462,367.5501,876.0855,370.1757,873.4599,373.215,879.6261,369.9171" style="stroke:#181818;stroke-width:0.71;"/></g><!--link Administrator to UC10--><g class="link" data-entity-1="Administrator" data-entity-2="UC10" data-source-line="34" data-uid="lnk26" id="link_Administrator_UC10"><path d="M559.4871,396.8403 C629.0742,400.4613 804.308,409.5972 889.3873,414.0347" fill="none" id="Administrator-to-UC10" style="stroke:#181818;stroke-width:0.71;"/><polygon fill="#181818" points="893.6415,414.2566,887.4081,411.0876,890.0963,414.0717,887.1122,416.7599,893.6415,414.2566" style="stroke:#181818;stroke-width:0.71;"/></g><!--link Administrator to UC2--><g class="link" data-entity-1="Administrator" data-entity-2="UC2" data-source-line="35" data-uid="lnk27" id="link_Administrator_UC2"><path d="M559.48,381.5043 C573.8504,375.0504 591.7495,367.8368 608.47,363.4064 C715.1688,335.1555 749.5825,365.3802 854.84,332.1664 C877.8653,324.9031 898.3995,313.7467 915.0206,303.5085" fill="none" id="Administrator-to-UC2" style="stroke:#181818;stroke-width:0.71;"/><polygon fill="#181818" points="918.6477,301.2743,911.7176,302.2075,915.6251,303.1361,914.6965,307.0437,918.6477,301.2743" style="stroke:#181818;stroke-width:0.71;"/></g><!--link UC3 to UC2--><g class="link" data-entity-1="UC3" data-entity-2="UC2" data-source-line="38" data-uid="lnk28" id="link_UC3_UC2"><path d="M573.4599,223.7991 C649.2027,236.9625 803.2717,263.7314 884.6945,277.8817" fill="none" id="UC3-to-UC2" style="stroke:#181818;stroke-width:0.71;"/><polygon fill="#181818" points="888.8916,278.6111,883.0822,274.7189,885.394,278.0033,882.1097,280.3151,888.8916,278.6111" style="stroke:#181818;stroke-width:0.71;"/><text fill="#000000" font-family="sans-serif" font-size="9.23" lengthAdjust="spacing" textLength="244.9555" x="609.18" y="227.8165">&#171;includes&#187;   ' Reservation includes viewing/searching books</text></g><!--link UC4 to UC3--><g class="link" data-entity-1="UC4" data-entity-2="UC3" data-source-line="39" data-uid="lnk29" id="link_UC4_UC3"><path d="M203.2091,269.4734 C264.8726,270.3538 366.9635,268.1102 452.27,248.3864 C471.6743,243.8992 488.627,236.9046 503.7713,229.6626" fill="none" id="UC4-to-UC3" style="stroke:#181818;stroke-width:0.71;"/><polygon fill="#181818" points="507.6145,227.8248,500.6245,228.0194,504.4118,229.3563,503.0749,233.1436,507.6145,227.8248" style="stroke:#181818;stroke-width:0.71;"/><text fill="#000000" font-family="sans-serif" font-size="9.23" lengthAdjust="spacing" textLength="216.238" x="235.72" y="245.5665">&#171;extends&#187;    ' Canceling reservation extends booking</text></g><!--link UC5 to UC3--><g class="link" data-entity-1="UC5" data-entity-2="UC3" data-source-line="40" data-uid="lnk30" id="link_UC5_UC3"><path d="M201.4412,172.5158 C212.5314,174.2056 224.1399,175.9096 235.01,177.3864 C331.3499,190.493 356.065,188.9097 452.27,202.9464 C464.0134,204.6575 472.5119,206.0323 484.163,208.07" fill="none" id="UC5-to-UC3" style="stroke:#181818;stroke-width:0.71;"/><polygon fill="#181818" points="488.3593,208.8039,482.5541,204.9055,484.8624,208.1923,481.5756,210.5006,488.3593,208.8039" style="stroke:#181818;stroke-width:0.71;"/><text fill="#000000" font-family="sans-serif" font-size="9.23" lengthAdjust="spacing" textLength="207.4902" x="239.98" y="174.5665">&#171;includes&#187;   ' Viewing history includes reservations</text></g><!--link UC7 to UC6--><g class="link" data-entity-1="UC7" data-entity-2="UC6" data-source-line="41" data-uid="lnk31" id="link_UC7_UC6"><path d="M586.744,63.1616 C651.3256,60.4991 760.9638,55.0889 854.84,46.0364 C868.0815,44.7584 878.209,43.5615 891.2801,41.7936" fill="none" id="UC7-to-UC6" style="stroke:#181818;stroke-width:0.71;"/><polygon fill="#181818" points="895.5017,41.2226,888.7887,39.2647,891.9837,41.6984,889.55,44.8934,895.5017,41.2226" style="stroke:#181818;stroke-width:0.71;"/><text fill="#000000" font-family="sans-serif" font-size="9.23" lengthAdjust="spacing" textLength="215.2059" x="624.09" y="43.2165">&#171;includes&#187;   ' Issue/Return includes managing books</text></g><!--SRC=[RLBBRi8m4BpxArPSQ0-84juLGahfePNQ2nMSUZ7sDh4QdCfsQFdxEh53CCajEpkP7UzEXby6J0vA9Aa1BXGo8t9926KcLx15ob7vuaqS55M2Ib_7_2Yaq4PHMn5IQ6HK8_Hs6ii_4zUoQZsW6dQRKKFP2_m5AZby85KiXQSy_zQU5ZMq4hPALkzqBJHk61ig6MOTdCdDi2i6l5XdkJfxvhHXlbD94tHkFkLTpFdm6JCqUE-viuRxgdM1mosQGid0_xojfwpB56l2eaMeDXOpbXVIrApbpGDYIREp4QpkZnu8wVi3WP065QrEfud71eDrjVIWZC9o79QJi9oM4ovN3uSqiEFEMiYyXKGjP5nE278KJWbRxfz59xhiHEsIkk38hIwhug1JyQE9zL8tuH5MAo5PLd3KwpK0z8Fur2qusRi8cGnr5MBx1OSo1rPhKh-lqi8_Wv8xAQlbCblIrPMg9rKIjcT5fe78ZQ6zcmsfot9ZwagpT3AlxzCb4cJued0iGtbvpJy0]--></g></svg>